STARTFONT 2.1
FONT -nokia-nokia-medium-r-normal--14-140-75-75-p-65-iso10646-1
SIZE 14 75 75
FONTBOUNDINGBOX 14 14 0 -2
STARTPROPERTIES 2
FONT_ASCENT 12
FONT_DESCENT 2
ENDPROPERTIES
CHARS 102
STARTCHAR U+0020
ENCODING 32
SWIDTH 286 0
DWIDTH 4
BBX 3 14 0 -2
BITMAP
00
00
00
00
00
00
00
00
00
00
00
00
00
00
ENDCHAR
STARTCHAR U+0021
ENCODING 33
SWIDTH 214 0
DWIDTH 3
BBX 2 14 0 -2
BITMAP
00
C0
C0
C0
C0
C0
C0
C0
C0
00
C0
C0
00
00
ENDCHAR
STARTCHAR U+0022
ENCODING 34
SWIDTH 500 0
DWIDTH 7
BBX 6 14 0 -2
BITMAP
00
48
48
48
00
00
00
00
00
00
00
00
00
00
ENDCHAR
STARTCHAR U+0023
ENCODING 35
SWIDTH 571 0
DWIDTH 8
BBX 7 14 0 -2
BITMAP
00
00
00
6C
6C
6C
FE
6C
FE
6C
6C
6C
00
00
ENDCHAR
STARTCHAR U+0024
ENCODING 36
SWIDTH 571 0
DWIDTH 8
BBX 7 14 0 -2
BITMAP
00
10
7C
D6
D0
D0
7C
16
16
16
D6
7C
10
10
ENDCHAR
STARTCHAR U+0025
ENCODING 37
SWIDTH 571 0
DWIDTH 8
BBX 7 14 0 -2
BITMAP
00
46
A4
AC
48
18
10
30
24
6A
4A
C4
00
00
ENDCHAR
STARTCHAR U+0026
ENCODING 38
SWIDTH 643 0
DWIDTH 9
BBX 8 14 0 -2
BITMAP
00
70
D8
D8
D8
D8
72
F6
DC
CC
DE
73
00
00
ENDCHAR
STARTCHAR U+0027
ENCODING 39
SWIDTH 143 0
DWIDTH 2
BBX 1 14 0 -2
BITMAP
00
80
80
80
00
00
00
00
00
00
00
00
00
00
ENDCHAR
STARTCHAR U+0028
ENCODING 40
SWIDTH 286 0
DWIDTH 4
BBX 3 14 0 -2
BITMAP
00
20
60
40
C0
C0
C0
C0
C0
C0
C0
40
60
20
ENDCHAR
STARTCHAR U+0029
ENCODING 41
SWIDTH 286 0
DWIDTH 4
BBX 3 14 0 -2
BITMAP
00
80
C0
40
60
60
60
60
60
60
60
40
C0
80
ENDCHAR
STARTCHAR U+002A
ENCODING 42
SWIDTH 571 0
DWIDTH 8
BBX 7 14 0 -2
BITMAP
00
00
00
00
44
6C
38
FE
38
6C
44
00
00
00
ENDCHAR
STARTCHAR U+002B
ENCODING 43
SWIDTH 571 0
DWIDTH 8
BBX 7 14 0 -2
BITMAP
00
00
00
00
00
18
18
7E
18
18
00
00
00
00
ENDCHAR
STARTCHAR U+002C
ENCODING 44
SWIDTH 286 0
DWIDTH 4
BBX 3 14 0 -2
BITMAP
00
00
00
00
00
00
00
00
00
00
60
60
C0
00
ENDCHAR
STARTCHAR U+002D
ENCODING 45
SWIDTH 429 0
DWIDTH 6
BBX 5 14 0 -2
BITMAP
00
00
00
00
00
00
F8
F8
00
00
00
00
00
00
ENDCHAR
STARTCHAR U+002E
ENCODING 46
SWIDTH 286 0
DWIDTH 4
BBX 3 14 0 -2
BITMAP
00
00
00
00
00
00
00
00
00
00
C0
C0
00
00
ENDCHAR
STARTCHAR U+002F
ENCODING 47
SWIDTH 429 0
DWIDTH 6
BBX 5 14 0 -2
BITMAP
00
18
18
30
30
30
60
60
60
C0
C0
C0
00
00
ENDCHAR
STARTCHAR U+0030
ENCODING 48
SWIDTH 571 0
DWIDTH 8
BBX 7 14 0 -2
BITMAP
00
7C
C6
C6
C6
C6
C6
C6
C6
C6
C6
7C
00
00
ENDCHAR
STARTCHAR U+0031
ENCODING 49
SWIDTH 571 0
DWIDTH 8
BBX 7 14 0 -2
BITMAP
00
18
38
78
58
18
18
18
18
18
18
18
00
00
ENDCHAR
STARTCHAR U+0032
ENCODING 50
SWIDTH 571 0
DWIDTH 8
BBX 7 14 0 -2
BITMAP
00
7C
C6
C6
06
06
1C
70
C0
C0
C0
FE
00
00
ENDCHAR
STARTCHAR U+0033
ENCODING 51
SWIDTH 571 0
DWIDTH 8
BBX 7 14 0 -2
BITMAP
00
7C
C6
06
06
3C
06
06
06
06
C6
7C
00
00
ENDCHAR
STARTCHAR U+0034
ENCODING 52
SWIDTH 571 0
DWIDTH 8
BBX 7 14 0 -2
BITMAP
00
04
0C
1C
2C
4C
CC
CC
FE
0C
0C
0C
00
00
ENDCHAR
STARTCHAR U+0035
ENCODING 53
SWIDTH 571 0
DWIDTH 8
BBX 7 14 0 -2
BITMAP
00
FC
C0
C0
C0
FC
C6
06
06
06
C6
7C
00
00
ENDCHAR
STARTCHAR U+0036
ENCODING 54
SWIDTH 571 0
DWIDTH 8
BBX 7 14 0 -2
BITMAP
00
7C
C6
C0
C0
FC
C6
C6
C6
C6
C6
7C
00
00
ENDCHAR
STARTCHAR U+0037
ENCODING 55
SWIDTH 571 0
DWIDTH 8
BBX 7 14 0 -2
BITMAP
00
FE
06
06
0C
0C
18
18
30
30
30
30
00
00
ENDCHAR
STARTCHAR U+0038
ENCODING 56
SWIDTH 571 0
DWIDTH 8
BBX 7 14 0 -2
BITMAP
00
7C
C6
C6
C6
7C
C6
C6
C6
C6
C6
7C
00
00
ENDCHAR
STARTCHAR U+0039
ENCODING 57
SWIDTH 571 0
DWIDTH 8
BBX 7 14 0 -2
BITMAP
00
7C
C6
C6
C6
C6
C6
7E
06
06
C6
7C
00
00
ENDCHAR
STARTCHAR U+003A
ENCODING 58
SWIDTH 286 0
DWIDTH 4
BBX 3 14 0 -2
BITMAP
00
00
00
00
00
60
60
00
00
00
60
60
00
00
ENDCHAR
STARTCHAR U+003B
ENCODING 59
SWIDTH 286 0
DWIDTH 4
BBX 3 14 0 -2
BITMAP
00
00
00
00
00
60
60
00
00
00
60
60
C0
00
ENDCHAR
STARTCHAR U+003C
ENCODING 60
SWIDTH 429 0
DWIDTH 6
BBX 5 14 0 -2
BITMAP
00
00
00
08
18
30
60
C0
60
30
18
08
00
00
ENDCHAR
STARTCHAR U+003D
ENCODING 61
SWIDTH 429 0
DWIDTH 6
BBX 5 14 0 -2
BITMAP
00
00
00
00
00
00
F8
00
00
F8
00
00
00
00
ENDCHAR
STARTCHAR U+003E
ENCODING 62
SWIDTH 429 0
DWIDTH 6
BBX 5 14 0 -2
BITMAP
00
00
00
80
C0
60
30
18
30
60
C0
80
00
00
ENDCHAR
STARTCHAR U+003F
ENCODING 63
SWIDTH 500 0
DWIDTH 7
BBX 6 14 0 -2
BITMAP
00
78
8C
8C
0C
0C
18
30
30
00
30
30
00
00
ENDCHAR
STARTCHAR U+0040
ENCODING 64
SWIDTH 714 0
DWIDTH 10
BBX 9 14 0 -2
BITMAP
0000
0000
3E00
4100
9480
AC80
A480
A480
A500
9A00
4080
3F00
0000
0000
ENDCHAR
STARTCHAR U+0041
ENCODING 65
SWIDTH 571 0
DWIDTH 8
BBX 7 14 0 -2
BITMAP
00
7C
C6
C6
C6
C6
C6
C6
FE
C6
C6
C6
00
00
ENDCHAR
STARTCHAR U+0042
ENCODING 66
SWIDTH 571 0
DWIDTH 8
BBX 7 14 0 -2
BITMAP
00
FC
C6
C6
C6
FC
C6
C6
C6
C6
C6
FC
00
00
ENDCHAR
STARTCHAR U+0043
ENCODING 67
SWIDTH 500 0
DWIDTH 7
BBX 6 14 0 -2
BITMAP
00
78
CC
C0
C0
C0
C0
C0
C0
C0
CC
78
00
00
ENDCHAR
STARTCHAR U+0044
ENCODING 68
SWIDTH 571 0
DWIDTH 8
BBX 7 14 0 -2
BITMAP
00
F8
CC
C6
C6
C6
C6
C6
C6
C6
CC
F8
00
00
ENDCHAR
STARTCHAR U+0045
ENCODING 69
SWIDTH 571 0
DWIDTH 8
BBX 7 14 0 -2
BITMAP
00
FE
C0
C0
C0
F8
C0
C0
C0
C0
C0
FE
00
00
ENDCHAR
STARTCHAR U+0046
ENCODING 70
SWIDTH 571 0
DWIDTH 8
BBX 7 14 0 -2
BITMAP
00
FE
C0
C0
C0
F8
C0
C0
C0
C0
C0
C0
00
00
ENDCHAR
STARTCHAR U+0047
ENCODING 71
SWIDTH 571 0
DWIDTH 8
BBX 7 14 0 -2
BITMAP
00
7C
C6
C0
C0
C0
CE
C6
C6
C6
C6
7E
00
00
ENDCHAR
STARTCHAR U+0048
ENCODING 72
SWIDTH 571 0
DWIDTH 8
BBX 7 14 0 -2
BITMAP
00
C6
C6
C6
C6
FE
C6
C6
C6
C6
C6
C6
00
00
ENDCHAR
STARTCHAR U+0049
ENCODING 73
SWIDTH 214 0
DWIDTH 3
BBX 2 14 0 -2
BITMAP
00
C0
C0
C0
C0
C0
C0
C0
C0
C0
C0
C0
00
00
ENDCHAR
STARTCHAR U+004A
ENCODING 74
SWIDTH 429 0
DWIDTH 6
BBX 5 14 0 -2
BITMAP
00
18
18
18
18
18
18
18
18
18
98
70
00
00
ENDCHAR
STARTCHAR U+004B
ENCODING 75
SWIDTH 643 0
DWIDTH 9
BBX 8 14 0 -2
BITMAP
00
C6
CC
D8
F0
E0
E0
F0
D8
CC
C6
C3
00
00
ENDCHAR
STARTCHAR U+004C
ENCODING 76
SWIDTH 500 0
DWIDTH 7
BBX 6 14 0 -2
BITMAP
00
C0
C0
C0
C0
C0
C0
C0
C0
C0
C0
FC
00
00
ENDCHAR
STARTCHAR U+004D
ENCODING 77
SWIDTH 714 0
DWIDTH 10
BBX 9 14 0 -2
BITMAP
0000
8080
C180
E380
F780
DD80
C980
C180
C180
C180
C180
C180
0000
0000
ENDCHAR
STARTCHAR U+004E
ENCODING 78
SWIDTH 571 0
DWIDTH 8
BBX 7 14 0 -2
BITMAP
00
C6
C6
E6
E6
F6
D6
DE
CE
CE
C6
C6
00
00
ENDCHAR
STARTCHAR U+004F
ENCODING 79
SWIDTH 643 0
DWIDTH 9
BBX 8 14 0 -2
BITMAP
00
7E
C3
C3
C3
C3
C3
C3
C3
C3
C3
7E
00
00
ENDCHAR
STARTCHAR U+0050
ENCODING 80
SWIDTH 571 0
DWIDTH 8
BBX 7 14 0 -2
BITMAP
00
FC
C6
C6
C6
C6
C6
FC
C0
C0
C0
C0
00
00
ENDCHAR
STARTCHAR U+0051
ENCODING 81
SWIDTH 643 0
DWIDTH 9
BBX 8 14 0 -2
BITMAP
00
7E
C3
C3
C3
C3
C3
C3
C3
D3
DB
7E
06
00
ENDCHAR
STARTCHAR U+0052
ENCODING 82
SWIDTH 571 0
DWIDTH 8
BBX 8 14 0 -2
BITMAP
00
FC
C6
C6
C6
C6
C6
FC
D8
CC
C6
C3
00
00
ENDCHAR
STARTCHAR U+0053
ENCODING 83
SWIDTH 500 0
DWIDTH 7
BBX 6 14 0 -2
BITMAP
00
78
CC
C0
C0
C0
78
0C
0C
0C
CC
78
00
00
ENDCHAR
STARTCHAR U+0054
ENCODING 84
SWIDTH 500 0
DWIDTH 7
BBX 6 14 0 -2
BITMAP
00
FC
30
30
30
30
30
30
30
30
30
30
00
00
ENDCHAR
STARTCHAR U+0055
ENCODING 85
SWIDTH 571 0
DWIDTH 8
BBX 7 14 0 -2
BITMAP
00
C6
C6
C6
C6
C6
C6
C6
C6
C6
C6
7C
00
00
ENDCHAR
STARTCHAR U+0056
ENCODING 86
SWIDTH 643 0
DWIDTH 9
BBX 8 14 0 -2
BITMAP
00
C3
C3
C3
C3
66
66
66
24
3C
18
18
00
00
ENDCHAR
STARTCHAR U+0057
ENCODING 87
SWIDTH 786 0
DWIDTH 11
BBX 10 14 0 -2
BITMAP
0000
C0C0
C0C0
C0C0
C0C0
6180
6D80
6D80
6D80
3F00
3300
3300
0000
0000
ENDCHAR
STARTCHAR U+0058
ENCODING 88
SWIDTH 571 0
DWIDTH 8
BBX 7 14 0 -2
BITMAP
00
C6
C6
C6
6C
6C
38
6C
6C
C6
C6
C6
00
00
ENDCHAR
STARTCHAR U+0059
ENCODING 89
SWIDTH 643 0
DWIDTH 9
BBX 8 14 0 -2
BITMAP
00
C3
C3
66
66
3C
3C
18
18
18
18
18
00
00
ENDCHAR
STARTCHAR U+005A
ENCODING 90
SWIDTH 571 0
DWIDTH 8
BBX 7 14 0 -2
BITMAP
00
FE
06
0E
1C
38
70
E0
C0
C0
C0
FE
00
00
ENDCHAR
STARTCHAR U+005B
ENCODING 91
SWIDTH 357 0
DWIDTH 5
BBX 4 14 0 -2
BITMAP
00
F0
C0
C0
C0
C0
C0
C0
C0
C0
C0
C0
C0
F0
ENDCHAR
STARTCHAR U+005C
ENCODING 92
SWIDTH 429 0
DWIDTH 6
BBX 5 14 0 -2
BITMAP
00
C0
C0
60
60
60
30
30
30
18
18
18
00
00
ENDCHAR
STARTCHAR U+005D
ENCODING 93
SWIDTH 357 0
DWIDTH 5
BBX 4 14 0 -2
BITMAP
00
F0
30
30
30
30
30
30
30
30
30
30
30
F0
ENDCHAR
STARTCHAR U+005E
ENCODING 94
SWIDTH 429 0
DWIDTH 6
BBX 5 14 0 -2
BITMAP
00
20
70
D8
88
00
00
00
00
00
00
00
00
00
ENDCHAR
STARTCHAR U+005F
ENCODING 95
SWIDTH 571 0
DWIDTH 8
BBX 8 14 0 -2
BITMAP
00
00
00
00
00
00
00
00
00
00
00
00
FF
00
ENDCHAR
STARTCHAR U+0060
ENCODING 96
SWIDTH 286 0
DWIDTH 4
BBX 3 14 0 -2
BITMAP
00
80
40
20
00
00
00
00
00
00
00
00
00
00
ENDCHAR
STARTCHAR U+0061
ENCODING 97
SWIDTH 500 0
DWIDTH 7
BBX 6 14 0 -2
BITMAP
00
00
00
00
78
0C
0C
7C
CC
CC
CC
7C
00
00
ENDCHAR
STARTCHAR U+0062
ENCODING 98
SWIDTH 500 0
DWIDTH 7
BBX 6 14 0 -2
BITMAP
00
C0
C0
C0
F8
CC
CC
CC
CC
CC
CC
F8
00
00
ENDCHAR
STARTCHAR U+0063
ENCODING 99
SWIDTH 429 0
DWIDTH 6
BBX 5 14 0 -2
BITMAP
00
00
00
00
70
C8
C0
C0
C0
C0
C8
70
00
00
ENDCHAR
STARTCHAR U+0064
ENCODING 100
SWIDTH 500 0
DWIDTH 7
BBX 6 14 0 -2
BITMAP
00
0C
0C
0C
7C
CC
CC
CC
CC
CC
CC
7C
00
00
ENDCHAR
STARTCHAR U+0065
ENCODING 101
SWIDTH 500 0
DWIDTH 7
BBX 6 14 0 -2
BITMAP
00
00
00
00
78
CC
CC
FC
C0
C0
C4
78
00
00
ENDCHAR
STARTCHAR U+0066
ENCODING 102
SWIDTH 357 0
DWIDTH 5
BBX 4 14 0 -2
BITMAP
00
30
60
60
F0
60
60
60
60
60
60
60
00
00
ENDCHAR
STARTCHAR U+0067
ENCODING 103
SWIDTH 500 0
DWIDTH 7
BBX 6 14 0 -2
BITMAP
00
00
00
00
7C
CC
CC
CC
CC
CC
CC
7C
0C
78
ENDCHAR
STARTCHAR U+0068
ENCODING 104
SWIDTH 500 0
DWIDTH 7
BBX 6 14 0 -2
BITMAP
00
C0
C0
C0
F8
CC
CC
CC
CC
CC
CC
CC
00
00
ENDCHAR
STARTCHAR U+0069
ENCODING 105
SWIDTH 214 0
DWIDTH 3
BBX 2 14 0 -2
BITMAP
00
C0
C0
00
C0
C0
C0
C0
C0
C0
C0
C0
00
00
ENDCHAR
STARTCHAR U+006A
ENCODING 106
SWIDTH 286 0
DWIDTH 4
BBX 3 14 0 -2
BITMAP
00
60
60
00
60
60
60
60
60
60
60
60
60
C0
ENDCHAR
STARTCHAR U+006B
ENCODING 107
SWIDTH 500 0
DWIDTH 7
BBX 6 14 0 -2
BITMAP
00
C0
C0
C0
CC
D8
F0
E0
E0
F0
D8
CC
00
00
ENDCHAR
STARTCHAR U+006C
ENCODING 108
SWIDTH 214 0
DWIDTH 3
BBX 2 14 0 -2
BITMAP
00
C0
C0
C0
C0
C0
C0
C0
C0
C0
C0
C0
00
00
ENDCHAR
STARTCHAR U+006D
ENCODING 109
SWIDTH 643 0
DWIDTH 9
BBX 8 14 0 -2
BITMAP
00
00
00
00
FE
DB
DB
DB
DB
DB
DB
DB
00
00
ENDCHAR
STARTCHAR U+006E
ENCODING 110
SWIDTH 500 0
DWIDTH 7
BBX 6 14 0 -2
BITMAP
00
00
00
00
F8
CC
CC
CC
CC
CC
CC
CC
00
00
ENDCHAR
STARTCHAR U+006F
ENCODING 111
SWIDTH 500 0
DWIDTH 7
BBX 6 14 0 -2
BITMAP
00
00
00
00
78
CC
CC
CC
CC
CC
CC
78
00
00
ENDCHAR
STARTCHAR U+0070
ENCODING 112
SWIDTH 500 0
DWIDTH 7
BBX 6 14 0 -2
BITMAP
00
00
00
00
F8
CC
CC
CC
CC
CC
CC
F8
C0
C0
ENDCHAR
STARTCHAR U+0071
ENCODING 113
SWIDTH 500 0
DWIDTH 7
BBX 6 14 0 -2
BITMAP
00
00
00
00
7C
CC
CC
CC
CC
CC
CC
7C
0C
0C
ENDCHAR
STARTCHAR U+0072
ENCODING 114
SWIDTH 429 0
DWIDTH 6
BBX 5 14 0 -2
BITMAP
00
00
00
00
D8
F8
C0
C0
C0
C0
C0
C0
00
00
ENDCHAR
STARTCHAR U+0073
ENCODING 115
SWIDTH 429 0
DWIDTH 6
BBX 5 14 0 -2
BITMAP
00
00
00
00
78
C0
E0
70
38
18
18
F0
00
00
ENDCHAR
STARTCHAR U+0074
ENCODING 116
SWIDTH 357 0
DWIDTH 5
BBX 4 14 0 -2
BITMAP
00
60
60
60
F0
60
60
60
60
60
60
30
00
00
ENDCHAR
STARTCHAR U+0075
ENCODING 117
SWIDTH 500 0
DWIDTH 7
BBX 6 14 0 -2
BITMAP
00
00
00
00
CC
CC
CC
CC
CC
CC
CC
7C
00
00
ENDCHAR
STARTCHAR U+0076
ENCODING 118
SWIDTH 500 0
DWIDTH 7
BBX 6 14 0 -2
BITMAP
00
00
00
00
CC
CC
CC
CC
48
78
30
30
00
00
ENDCHAR
STARTCHAR U+0077
ENCODING 119
SWIDTH 714 0
DWIDTH 10
BBX 9 14 0 -2
BITMAP
0000
0000
0000
0000
C180
C180
C180
6300
6B00
7F00
3600
3600
0000
0000
ENDCHAR
STARTCHAR U+0078
ENCODING 120
SWIDTH 500 0
DWIDTH 7
BBX 6 14 0 -2
BITMAP
00
00
00
00
CC
CC
78
30
30
78
CC
CC
00
00
ENDCHAR
STARTCHAR U+0079
ENCODING 121
SWIDTH 500 0
DWIDTH 7
BBX 6 14 0 -2
BITMAP
00
00
00
00
CC
CC
CC
CC
CC
CC
CC
7C
0C
78
ENDCHAR
STARTCHAR U+007A
ENCODING 122
SWIDTH 500 0
DWIDTH 7
BBX 6 14 0 -2
BITMAP
00
00
00
00
FC
0C
1C
38
70
E0
C0
FC
00
00
ENDCHAR
STARTCHAR U+007B
ENCODING 123
SWIDTH 286 0
DWIDTH 4
BBX 3 14 0 -2
BITMAP
00
20
60
40
C0
C0
C0
C0
C0
C0
C0
40
60
20
ENDCHAR
STARTCHAR U+007C
ENCODING 124
SWIDTH 286 0
DWIDTH 4
BBX 3 14 0 -2
BITMAP
00
80
C0
40
60
60
60
60
60
60
60
40
C0
80
ENDCHAR
STARTCHAR U+007D
ENCODING 125
SWIDTH 214 0
DWIDTH 3
BBX 2 14 0 -2
BITMAP
00
C0
C0
C0
C0
C0
C0
C0
C0
C0
C0
C0
C0
C0
ENDCHAR
STARTCHAR U+007E
ENCODING 126
SWIDTH 571 0
DWIDTH 8
BBX 7 14 0 -2
BITMAP
00
00
00
00
00
00
32
7E
4C
00
00
00
00
00
ENDCHAR
STARTCHAR U+20AC
ENCODING 8364
SWIDTH 857 0
DWIDTH 12
BBX 11 14 0 -2
BITMAP
0000
0780
1CE0
3820
3000
FFC0
3000
FF80
3000
3820
1CE0
0780
0000
0000
ENDCHAR
STARTCHAR U+00A3
ENCODING 163
SWIDTH 571 0
DWIDTH 8
BBX 7 14 0 -2
BITMAP
00
38
6C
60
60
60
F8
60
60
60
66
FC
00
00
ENDCHAR
STARTCHAR U+00A5
ENCODING 165
SWIDTH 643 0
DWIDTH 9
BBX 8 14 0 -2
BITMAP
00
C3
C3
66
66
FF
18
FF
18
18
18
18
00
00
ENDCHAR
STARTCHAR U+00A4
ENCODING 164
SWIDTH 714 0
DWIDTH 10
BBX 9 14 0 -2
BITMAP
0000
0000
8080
5D00
2200
4100
4100
4100
2200
5D00
8080
0000
0000
0000
ENDCHAR
STARTCHAR U+00BF
ENCODING 191
SWIDTH 500 0
DWIDTH 7
BBX 6 14 0 -2
BITMAP
00
30
30
00
30
30
60
C0
C0
C4
C4
78
00
00
ENDCHAR
STARTCHAR U+00A1
ENCODING 161
SWIDTH 214 0
DWIDTH 3
BBX 2 14 0 -2
BITMAP
00
C0
C0
00
C0
C0
C0
C0
C0
C0
C0
C0
00
00
ENDCHAR
STARTCHAR U+00A7
ENCODING 167
SWIDTH 500 0
DWIDTH 7
BBX 6 14 0 -2
BITMAP
00
38
6C
6C
60
F0
D8
CC
6C
3C
18
D8
D8
70
ENDCHAR
ENDFONT
